<svg version="1.1" id="Layer_1" xmlns="http://www.w3.org/2000/svg" xmlns:xlink="http://www.w3.org/1999/xlink" x="0px" y="0px"
	 width="100%" viewBox="0 0 992 992" enable-background="new 0 0 992 992" xml:space="preserve">
<path fill="#000000" opacity="1.000000" stroke="none" 
	d="
M601.227661,836.361877 
	C579.830750,847.507324 558.770508,858.498047 537.733337,869.532654 
	C526.407654,875.473267 515.077454,881.408081 503.834503,887.502625 
	C497.434631,890.971863 491.303680,890.804077 484.926086,887.429993 
	C454.238953,871.194702 423.489807,855.076599 392.787811,838.869263 
	C364.288849,823.824890 335.820770,808.722046 307.343018,793.637573 
	C305.850006,792.846741 304.342621,792.389526 302.594910,792.390015 
	C214.108978,792.415161 125.623055,792.408203 37.137146,792.358704 
	C35.107300,792.357544 32.882050,793.065002 30.183659,790.850952 
	C120.432259,790.850952 209.802292,790.850952 299.172333,790.850952 
	C299.258606,790.503540 299.344849,790.156189 299.431122,789.808777 
	C292.940979,786.356506 286.441864,782.920898 279.964691,779.444458 
	C277.040192,777.874756 274.175446,776.193909 271.255035,774.616394 
	C266.589264,772.096130 265.008240,767.767761 263.657898,762.949585 
	C258.369904,744.081421 259.666534,724.798645 259.663483,705.598511 
	C259.639709,556.779907 259.665131,407.961273 259.624542,259.142639 
	C259.620422,244.085312 265.727905,233.480148 279.600525,226.508850 
	C308.116699,212.178894 336.230316,197.047150 364.492950,182.213684 
	C389.221527,169.235031 413.942413,156.241592 438.637970,143.200226 
	C455.688965,134.195831 472.755402,125.216911 489.684631,115.987587 
	C496.904266,112.051666 503.629730,111.969574 510.932800,115.864883 
	C545.960754,134.548111 581.087646,153.046097 616.199890,171.571121 
	C631.337952,179.557922 646.527649,187.446762 661.689880,195.387787 
	C682.003601,206.026779 702.358337,216.588882 722.608093,227.348465 
	C734.578735,233.709000 740.283752,244.059784 740.311768,257.454712 
	C740.394470,296.950623 740.348206,336.446838 740.347717,375.942932 
	C740.346252,496.597687 740.300781,617.252502 740.397034,737.907104 
	C740.408142,751.791809 735.261536,761.844238 723.603149,770.181824 
	C714.015442,777.038391 703.350830,781.505005 693.542969,787.665161 
	C692.463196,788.343323 691.051025,788.591980 690.052673,790.703003 
	C783.745300,790.703003 877.038330,790.703003 970.331360,790.703003 
	C968.881104,792.856506 967.053040,792.377197 965.381897,792.377686 
	C873.224365,792.404114 781.066895,792.411560 688.909363,792.360107 
	C685.458618,792.358215 682.570190,793.151245 679.555908,794.990967 
	C673.748596,798.535156 667.569214,801.470520 661.538330,804.647400 
	C641.551575,815.176025 621.562256,825.699768 601.227661,836.361877 
M356.720306,781.713196 
	C365.838013,786.563293 374.937225,791.448547 384.076691,796.257263 
	C419.310486,814.795532 454.578339,833.269226 489.764374,851.897583 
	C493.066223,853.645691 495.687073,853.773315 499.034027,852.001648 
	C553.361633,823.243713 607.776611,794.650757 662.103821,765.891968 
	C675.485474,758.808228 689.279968,752.481628 701.994446,744.139282 
	C705.648621,741.741577 706.750366,738.929321 706.747437,734.643738 
	C706.639221,577.328674 706.638184,420.013580 706.750427,262.698547 
	C706.753357,258.561371 705.340881,256.396484 701.797546,254.576248 
	C685.795166,246.355667 669.898499,237.928757 653.981262,229.543045 
	C604.019531,203.221542 554.056641,176.902252 504.134399,150.506042 
	C501.510681,149.118744 499.370911,148.880219 496.742920,150.418991 
	C492.435150,152.941315 487.938293,155.140945 483.518951,157.472473 
	C422.529449,189.648941 361.596863,221.934616 300.454803,253.818634 
	C294.778351,256.778748 293.210632,259.928650 293.216980,265.978058 
	C293.380859,422.459778 293.347717,578.941711 293.349670,735.423584 
	C293.349670,736.756714 293.270538,738.097900 293.386108,739.421570 
	C293.913239,745.458130 295.777222,749.989075 302.062622,753.084778 
	C320.284912,762.059448 338.082611,771.896179 356.720306,781.713196 
z"/>
</svg>