<svg version="1.1" id="Layer_1" xmlns="http://www.w3.org/2000/svg" xmlns:xlink="http://www.w3.org/1999/xlink" x="0px" y="0px"
	 width="100%" viewBox="0 0 1000 1000" enable-background="new 0 0 1000 1000" xml:space="preserve">
<path fill="#FFFFFF" opacity="1.000000" stroke="none" 
	d="
M1.000000,378.000000 
	C1.000000,252.000015 1.000000,126.500031 1.000000,1.000034 
	C334.333282,1.000022 667.666565,1.000022 1000.999878,1.000011 
	C1000.999878,334.333221 1000.999878,667.666443 1000.999939,1000.999756 
	C667.666809,1000.999878 334.333588,1000.999878 1.000201,1000.999939 
	C1.000000,793.500000 1.000000,586.000000 1.000000,378.000000 
M29.765678,791.632996 
	C29.841169,791.794922 29.916662,791.956909 29.785568,793.021057 
	C29.573351,840.005493 29.361134,886.989990 29.033812,934.904297 
	C29.033812,942.147156 29.033812,949.390015 29.033812,956.850586 
	C37.136810,956.850586 44.580833,956.850586 52.949883,956.989380 
	C350.462097,956.992920 647.974304,956.996582 945.486511,956.993774 
	C946.649109,956.993774 947.811768,956.900696 949.904236,956.966187 
	C957.147095,956.966187 964.389954,956.966187 971.850586,956.966187 
	C971.850586,948.863159 971.850586,941.419189 971.989380,933.050049 
	C971.992859,913.613220 972.018433,894.176453 971.994629,874.739624 
	C971.960754,847.166748 971.890564,819.593933 971.972961,791.499878 
	C971.927185,791.326111 971.881409,791.152405 971.987976,790.055115 
	C971.991882,651.696899 971.996338,513.338745 971.992249,374.980530 
	C971.992188,373.653564 971.878662,372.326630 971.975403,370.079285 
	C971.983459,270.223846 971.991882,170.368393 971.993225,70.512939 
	C971.993225,69.684593 971.896179,68.856247 971.974121,67.098228 
	C971.974121,59.835846 971.974121,52.573463 971.974121,45.156368 
	C963.903198,45.156368 956.438660,45.156368 948.055481,45.011116 
	C650.541870,45.007458 353.028290,45.003624 55.514694,45.006554 
	C54.352413,45.006565 53.190136,45.103786 51.098198,45.025890 
	C43.835827,45.025890 36.573456,45.025890 29.156406,45.025890 
	C29.156406,53.096722 29.156406,60.561275 29.011139,68.949486 
	C29.152815,75.091316 29.413206,81.233055 29.418308,87.375000 
	C29.491579,175.613663 29.518351,263.852325 29.603170,352.090973 
	C29.609228,358.394043 29.980093,364.696747 30.013071,371.923615 
	C29.823093,488.200409 29.627689,604.477173 29.447968,720.753967 
	C29.414230,742.581116 29.433010,764.408447 29.463650,786.235657 
	C29.465935,787.863708 29.760248,789.491455 29.765678,791.632996 
z"/>
<path fill="#000000" opacity="1.000000" stroke="none" 
	d="
M30.181332,370.999634 
	C29.980093,364.696747 29.609228,358.394043 29.603170,352.090973 
	C29.518351,263.852325 29.491579,175.613663 29.418308,87.375000 
	C29.413206,81.233055 29.152815,75.091316 29.381210,68.291122 
	C32.834835,55.837151 41.118832,49.195580 52.027855,45.155609 
	C53.190136,45.103786 54.352413,45.006565 55.514694,45.006554 
	C353.028290,45.003624 650.541870,45.007458 948.711304,45.381165 
	C961.162720,48.834919 967.804504,57.118767 971.844421,68.027901 
	C971.896179,68.856247 971.993225,69.684593 971.993225,70.512939 
	C971.991882,170.368393 971.983459,270.223846 971.439697,370.539642 
	C893.739380,371.000366 816.574768,371.000732 739.309326,370.541870 
	C739.183960,332.595947 739.021912,295.108521 739.207092,257.622833 
	C739.274536,243.976974 733.181763,234.329819 721.509094,228.163986 
	C651.409180,191.135101 581.211304,154.291412 511.143127,117.202751 
	C503.813507,113.323013 497.357025,113.095650 490.008911,117.090378 
	C469.175385,128.416367 448.123810,139.342392 427.128113,150.368835 
	C377.205566,176.586960 327.237030,202.717880 277.355591,229.013901 
	C266.636993,234.664413 260.886688,243.737839 260.874878,256.061829 
	C260.845398,286.885040 260.882660,317.708313 260.852631,348.531525 
	C260.845337,356.021027 260.681580,363.510406 260.146820,370.999969 
	C183.196350,370.999939 106.688843,370.999786 30.181332,370.999634 
z"/>
<path fill="#000000" opacity="1.000000" stroke="none" 
	d="
M29.148918,933.974426 
	C29.361134,886.989990 29.573351,840.005493 30.356995,792.524536 
	C120.373108,792.017944 209.817795,792.008972 299.262482,791.991150 
	C301.257568,791.990784 303.252686,791.890259 305.597809,791.889465 
	C365.246826,823.181213 424.586578,854.343140 483.794128,885.754211 
	C491.347290,889.761353 497.864075,889.666016 505.379761,885.656982 
	C548.274780,862.775574 591.323364,840.181702 634.348999,817.545654 
	C650.779663,808.901428 667.287903,800.404724 684.239746,791.911804 
	C780.424377,791.995605 876.130066,792.008301 971.835815,792.021057 
	C971.890564,819.593933 971.960754,847.166748 971.994629,874.739624 
	C972.018433,894.176453 971.992859,913.613220 971.603027,933.687378 
	C968.223938,946.199097 959.853699,952.763855 948.974365,956.851135 
	C947.811768,956.900696 946.649109,956.993774 945.486511,956.993774 
	C647.974304,956.996582 350.462097,956.992920 52.312668,956.603027 
	C39.800896,953.224121 33.236427,944.853577 29.148918,933.974426 
z"/>
<path fill="#000000" opacity="1.000000" stroke="none" 
	d="
M739.410217,371.001099 
	C816.574768,371.000732 893.739380,371.000366 971.361084,370.999817 
	C971.878662,372.326630 971.992188,373.653564 971.992249,374.980530 
	C971.996338,513.338745 971.991882,651.696899 971.453674,790.524353 
	C878.010254,790.995911 785.101074,791.003357 692.191956,790.960999 
	C690.456543,790.960205 688.721313,790.368469 687.209656,789.786072 
	C699.568909,782.465820 711.749878,775.488586 723.826416,768.335083 
	C734.305481,762.127747 739.189270,752.867065 739.181519,740.612732 
	C739.104797,619.395691 739.133728,498.178619 739.146484,376.961578 
	C739.146729,374.974762 739.318542,372.987915 739.410217,371.001099 
z"/>
<path fill="#000000" opacity="1.000000" stroke="none" 
	d="
M30.097200,371.461609 
	C106.688843,370.999786 183.196350,370.999939 260.271301,371.453857 
	C260.847534,492.144257 260.856567,612.380920 260.864532,732.617554 
	C260.865082,740.907349 260.044800,749.308411 264.564789,756.935852 
	C265.019318,757.702942 264.902435,758.886841 264.846802,759.865662 
	C264.425598,767.274475 268.055450,771.992065 274.444031,775.277710 
	C283.714050,780.045288 292.830475,785.111450 301.711365,790.340820 
	C299.432312,790.754883 297.454224,790.986084 295.476105,790.986572 
	C226.756332,791.005249 158.036575,790.993530 89.316803,791.007446 
	C69.517464,791.011475 49.718136,791.080261 29.918804,791.119324 
	C29.760248,789.491455 29.465935,787.863708 29.463650,786.235657 
	C29.433010,764.408447 29.414230,742.581116 29.447968,720.753967 
	C29.627689,604.477173 29.823093,488.200409 30.097200,371.461609 
z"/>
<path fill="#22210E" opacity="1.000000" stroke="none" 
	d="
M686.986023,790.052490 
	C688.721313,790.368469 690.456543,790.960205 692.191956,790.960999 
	C785.101074,791.003357 878.010254,790.995911 971.377563,790.986145 
	C971.881409,791.152405 971.927185,791.326111 971.904419,791.760498 
	C876.130066,792.008301 780.424377,791.995605 684.434570,791.660950 
	C685.095703,790.910217 686.040894,790.481323 686.986023,790.052490 
z"/>
<path fill="#22210E" opacity="1.000000" stroke="none" 
	d="
M29.842239,791.376160 
	C49.718136,791.080261 69.517464,791.011475 89.316803,791.007446 
	C158.036575,790.993530 226.756332,791.005249 295.476105,790.986572 
	C297.454224,790.986084 299.432312,790.754883 302.029053,790.357910 
	C303.514374,790.668579 304.381073,791.252502 305.247772,791.836487 
	C303.252686,791.890259 301.257568,791.990784 299.262482,791.991150 
	C209.817795,792.008972 120.373108,792.017944 30.460285,792.073364 
	C29.916662,791.956909 29.841169,791.794922 29.842239,791.376160 
z"/>
<path fill="#68BB43" opacity="1.000000" stroke="none" 
	d="
M51.563026,45.090752 
	C41.118832,49.195580 32.834835,55.837151 29.453844,67.829292 
	C29.156406,60.561275 29.156406,53.096722 29.156406,45.025890 
	C36.573456,45.025890 43.835827,45.025890 51.563026,45.090752 
z"/>
<path fill="#68BB43" opacity="1.000000" stroke="none" 
	d="
M971.909302,67.563065 
	C967.804504,57.118767 961.162720,48.834919 949.170654,45.453789 
	C956.438660,45.156368 963.903198,45.156368 971.974121,45.156368 
	C971.974121,52.573463 971.974121,59.835846 971.909302,67.563065 
z"/>
<path fill="#DBD359" opacity="1.000000" stroke="none" 
	d="
M29.091366,934.439331 
	C33.236427,944.853577 39.800896,953.224121 51.850159,956.533691 
	C44.580833,956.850586 37.136810,956.850586 29.033812,956.850586 
	C29.033812,949.390015 29.033812,942.147156 29.091366,934.439331 
z"/>
<path fill="#DBD359" opacity="1.000000" stroke="none" 
	d="
M949.439331,956.908691 
	C959.853699,952.763855 968.223938,946.199097 971.533630,934.149902 
	C971.850586,941.419189 971.850586,948.863159 971.850586,956.966187 
	C964.389954,956.966187 957.147095,956.966187 949.439331,956.908691 
z"/>
<path fill="#F4F0F0" opacity="1.000000" stroke="none" 
	d="
M305.597809,791.889465 
	C304.381073,791.252502 303.514374,790.668579 302.330017,790.067505 
	C292.830475,785.111450 283.714050,780.045288 274.444031,775.277710 
	C268.055450,771.992065 264.425598,767.274475 264.846802,759.865662 
	C264.902435,758.886841 265.019318,757.702942 264.564789,756.935852 
	C260.044800,749.308411 260.865082,740.907349 260.864532,732.617554 
	C260.856567,612.380920 260.847534,492.144257 260.714294,371.453735 
	C260.681580,363.510406 260.845337,356.021027 260.852631,348.531525 
	C260.882660,317.708313 260.845398,286.885040 260.874878,256.061829 
	C260.886688,243.737839 266.636993,234.664413 277.355591,229.013901 
	C327.237030,202.717880 377.205566,176.586960 427.128113,150.368835 
	C448.123810,139.342392 469.175385,128.416367 490.008911,117.090378 
	C497.357025,113.095650 503.813507,113.323013 511.143127,117.202751 
	C581.211304,154.291412 651.409180,191.135101 721.509094,228.163986 
	C733.181763,234.329819 739.274536,243.976974 739.207092,257.622833 
	C739.021912,295.108521 739.183960,332.595947 739.309326,370.541870 
	C739.318542,372.987915 739.146729,374.974762 739.146484,376.961578 
	C739.133728,498.178619 739.104797,619.395691 739.181519,740.612732 
	C739.189270,752.867065 734.305481,762.127747 723.826416,768.335083 
	C711.749878,775.488586 699.568909,782.465820 687.209656,789.786072 
	C686.040894,790.481323 685.095703,790.910217 683.955688,791.589905 
	C667.287903,800.404724 650.779663,808.901428 634.348999,817.545654 
	C591.323364,840.181702 548.274780,862.775574 505.379761,885.656982 
	C497.864075,889.666016 491.347290,889.761353 483.794128,885.754211 
	C424.586578,854.343140 365.246826,823.181213 305.597809,791.889465 
z"/>
</svg>